<?xml version="1.0" encoding="utf-8"?>
<!-- Generator: Adobe Illustrator 20.1.0, SVG Export Plug-In . SVG Version: 6.00 Build 0)  -->
<svg version="1.1" id="Layer_1" xmlns="http://www.w3.org/2000/svg" xmlns:xlink="http://www.w3.org/1999/xlink" x="0px" y="0px"
	 viewBox="0 0 960 560" style="enable-background:new 0 0 960 560;" xml:space="preserve">
<style type="text/css">
	.st0{clip-path:url(#SVGID_2_);}
	.st1{clip-path:url(#SVGID_4_);}
	.st2{fill:#72A89B;}
	.st3{font-family:'Calibri-Bold';}
	.st4{font-size:71.2325px;}
	.st5{letter-spacing:2.2;}
</style>
<image style="overflow:visible;enable-background:new    ;" width="1200" height="630" xlink:href="6BBBD54CD2B56F47.jpg"  transform="matrix(0.4365 -0.2351 0.2351 0.4365 -175.7342 216.0325)">
</image>
<g>
	<g>
		<defs>
			<path id="SVGID_1_" d="M210.7,387.9c1.9-6.9,4.4-11.7,5-12.7c1.2-2.3,3.2-5.8,6.7-9.8c4.3-4.8,8.6-7.4,11.3-9
				c6.2-3.7,11.6-5.4,13.5-5.9c2.6-0.7,8-2,14.9-2c6,0.1,10.7,1.1,13,1.7c6,1.6,10.4,3.9,12.7,5.2c1.7,1,4.6,2.7,7.7,5.4
				c0.9,0.8,3.4,2.9,6.1,6.1c2.7,3.1,4.5,5.9,5.7,7.9c1.6,2.7,2.5,4.9,4.5,9.4c1.3,3.1,2.4,5.6,3.5,8.8c1.8,5.2,2.6,9.2,3.1,11.6
				c2.4,12.1,1.4,4.4,5.5,25c3.5,17.3,6.3,33.2,8.1,48.1c0.2,1.7,0.8,7,0.7,13.9c-0.1,5.2-0.2,10.1-1.9,16.3
				c-0.3,1.1-1.4,5.1-3.9,9.9c-2.3,4.5-4.6,7.7-5.4,8.9c-4.4,5.8-8.9,9.3-9.9,10.1c-6.3,4.8-12.2,6.8-15.3,7.8
				c-7.2,2.4-13.2,2.8-15.7,2.9c-7.6,0.3-13.4-1.2-15-1.6c-2.2-0.6-9.2-2.6-16.8-8c-1.7-1.2-9.3-6.8-15.4-16.9
				c-3.2-5.2-4.7-9.7-7-16.1c-0.6-1.6-2-5.8-4.3-14.9c-1.3-5.2-2.4-10.2-4.5-20.4c-3.9-19.6-2.9-16.5-6.7-36
				c-0.7-3.7-1.6-8.3-2.2-14.8c-0.3-3.6-0.7-7.9-0.5-13.6C208.4,401.1,208.7,395.2,210.7,387.9z"/>
		</defs>
		<clipPath id="SVGID_2_">
			<use xlink:href="#SVGID_1_"  style="overflow:visible;"/>
		</clipPath>
		<g transform="matrix(1 0 0 1 -1.525879e-05 0)" class="st0">
			
				<image style="overflow:visible;enable-background:new    ;" width="3024" height="4032" xlink:href="6BBBD54CD2B56F45.jpg"  transform="matrix(6.333475e-02 -9.682874e-02 9.682874e-02 6.333475e-02 -30.1239 441.0833)">
			</image>
		</g>
	</g>
</g>
<g id="_x32_AOw0x.tif">
	
		<image style="overflow:visible;enable-background:new    ;" width="296" height="235" id="Layer_0" xlink:href="6BBBD54CD2B56F4C.png"  transform="matrix(-0.4007 0.7008 -0.7008 -0.4007 988.0576 23.3671)">
	</image>
</g>
<g>
	<g>
		<defs>
			<path id="SVGID_3_" d="M837.3,252.9c0.1-2.8,0.6-6.9,2.2-11.5c1.3-3.7,2.3-6.8,5.1-9.9c3.9-4.3,8.7-5.6,10.9-6.2
				c0.8-0.2,4.4-1.2,9.2-0.8c2.6,0.2,4.7,0.7,6.3,1.2l29.3,5.4l38,7.2l22.3,4.2l8,1.5c0.8,0.1,2.1,0.3,3.5,0.7
				c2.7,0.6,4.5,1.1,6.5,2.1c3.1,1.7,4.9,4.2,5.8,5.4c0.7,1,1.9,2.7,2.6,5.2c0.2,0.8,0.4,2.5,0.7,5.9c0.4,4,0.4,4.9,0.3,5.8
				c-0.1,1.8-0.3,3.3-0.4,4.2l-2.2,11.5l-5.5,28.9l-10.5,55.4l-25.5,149.4c-0.3,1.4-0.8,3.9-1.3,7c-1.1,6.1-1.1,7.4-2.2,9.7
				c-1.4,2.9-3.1,4.7-4.4,6c-1.7,1.8-3.3,3.5-5.9,4.6c-3,1.4-5.7,1.4-9.7,1.4c-2.2,0-4.1-0.1-5.4-0.3l-48.1-9.1l-42.5-6.3l-7-1.3
				c-1.3-0.1-3.1-0.4-5.2-1c-5.6-1.7-9.1-4.8-9.8-5.5c-3.8-3.6-5.4-7.4-5.9-8.7c-1.4-3.6-1.5-6.7-1.5-9.3c0-2.6,0.2-6.7,1.8-11.6
				l8.3-49.3l19.3-111.2l7.3-46.3L837.3,252.9z"/>
		</defs>
		<clipPath id="SVGID_4_">
			<use xlink:href="#SVGID_3_"  style="overflow:visible;"/>
		</clipPath>
		<g transform="matrix(1 0 0 1 0 3.814697e-06)" class="st1">
			
				<image style="overflow:visible;enable-background:new    ;" width="3024" height="4032" xlink:href="6BBBD54CD2B56F4D.jpg"  transform="matrix(0.1673 3.177426e-02 -3.177426e-02 0.1673 705.4138 -18.3766)">
			</image>
		</g>
	</g>
</g>
<text transform="matrix(0.9259 0 0 1 206.1364 256.5889)" class="st2 st3 st4 st5">WEB DEVELOPMENT </text>
<text transform="matrix(0.9259 0 0 1 160.2223 332.7529)" class="st2 st3 st4 st5">FOR SMALL BUSINESSES</text>
</svg>
