<?xml version="1.0" encoding="utf-8"?>
<!-- Generator: Adobe Illustrator 20.1.0, SVG Export Plug-In . SVG Version: 6.00 Build 0)  -->
<svg version="1.1" id="Layer_1" xmlns="http://www.w3.org/2000/svg" xmlns:xlink="http://www.w3.org/1999/xlink" x="0px" y="0px"
	 viewBox="0 0 960 560" style="enable-background:new 0 0 960 560;" xml:space="preserve">
<style type="text/css">
	.st0{fill:#FFFFFF;}
	.st1{fill:#666666;}
	.st2{fill:#00A99D;}
	.st3{fill:none;stroke:#00A99D;stroke-width:3;stroke-miterlimit:10;}
	.st4{fill:none;stroke:#666666;stroke-width:3;stroke-miterlimit:10;}
	.st5{fill:#009245;}
	.st6{fill:#8CC63F;}
</style>
<g>
	<path class="st0" d="M250.3,535c-5.8,0-10.5-4.7-10.5-10.5v-489c0-5.8,4.7-10.5,10.5-10.5h423.4c5.8,0,10.5,4.7,10.5,10.5v489
		c0,5.8-4.7,10.5-10.5,10.5H250.3z"/>
	<path class="st1" d="M673.7,26.5c5,0,9,4,9,9v489c0,5-4,9-9,9H250.3c-5,0-9-4-9-9v-489c0-5,4-9,9-9H673.7 M673.7,23.5H250.3
		c-6.6,0-12,5.4-12,12v489c0,6.6,5.4,12,12,12h423.4c6.6,0,12-5.4,12-12v-489C685.7,28.9,680.3,23.5,673.7,23.5L673.7,23.5z"/>
</g>
<g>
	<path class="st2" d="M350.2,198c-35.8,0-65-29.2-65-65s29.2-65,65-65s65,29.2,65,65S386,198,350.2,198z"/>
	<path class="st2" d="M350.2,69.5c35,0,63.5,28.5,63.5,63.5s-28.5,63.5-63.5,63.5s-63.5-28.5-63.5-63.5S315.1,69.5,350.2,69.5
		 M350.2,66.5c-36.7,0-66.5,29.8-66.5,66.5s29.8,66.5,66.5,66.5s66.5-29.8,66.5-66.5S386.9,66.5,350.2,66.5L350.2,66.5z"/>
</g>
<g>
	<line class="st3" x1="440.4" y1="99.5" x2="638.3" y2="99.5"/>
</g>
<line class="st3" x1="444.5" y1="132.8" x2="638.3" y2="132.8"/>
<g>
	<line class="st3" x1="487.7" y1="166.1" x2="640.4" y2="166.1"/>
</g>
<g>
	<line class="st3" x1="294.1" y1="232.6" x2="636.8" y2="232.6"/>
</g>
<line class="st3" x1="301.2" y1="265.9" x2="636.8" y2="265.9"/>
<g>
	<line class="st3" x1="297.7" y1="299.2" x2="640.4" y2="299.2"/>
</g>
<g>
	<line class="st3" x1="297.7" y1="374.2" x2="638.9" y2="374.2"/>
</g>
<line class="st3" x1="304.8" y1="407.5" x2="638.9" y2="407.5"/>
<g>
	<line class="st3" x1="301.2" y1="440.8" x2="642.4" y2="440.8"/>
</g>
<g>
	<path class="st0" d="M736,381c-1.8,0-3.5-0.4-5-1.3l-260-143.3c-5.1-2.8-6.9-9.2-4.1-14.3l27.1-49.2c1.8-3.3,5.4-5.4,9.2-5.4
		c1.8,0,3.5,0.4,5,1.3l260,143.3c2.4,1.3,4.2,3.6,5,6.3c0.8,2.7,0.5,5.5-0.9,8l-27.1,49.2C743.3,379,739.8,381,736,381z"/>
	<path class="st1" d="M503.1,169.1c1.5,0,3,0.4,4.3,1.1l260,143.3c2.1,1.2,3.6,3.1,4.3,5.4c0.7,2.3,0.4,4.7-0.7,6.8l-27.1,49.2
		c-1.6,2.9-4.6,4.6-7.9,4.6c-1.5,0-3-0.4-4.3-1.1l-260-143.3c-2.1-1.2-3.6-3.1-4.3-5.4c-0.7-2.3-0.4-4.7,0.7-6.8l27.1-49.2
		C496.8,170.9,499.8,169.1,503.1,169.1 M503.1,166.1c-4.2,0-8.4,2.2-10.5,6.2l-27.1,49.2c-3.2,5.8-1.1,13.1,4.7,16.3l260,143.3
		c1.8,1,3.8,1.5,5.8,1.5c4.2,0,8.4-2.2,10.5-6.2l27.1-49.2c3.2-5.8,1.1-13.1-4.7-16.3l-260-143.3C507,166.6,505.1,166.1,503.1,166.1
		L503.1,166.1z"/>
</g>
<g>
	<path class="st0" d="M778.4,403.7c-1.8,0-3.6-0.5-5.2-1.4l-19.7-11.4c-2.4-1.4-4.1-3.7-4.9-6.4c-0.7-2.7-0.4-5.5,1-8l27.2-47.2
		c1.9-3.2,5.4-5.2,9.1-5.2c1.8,0,3.6,0.5,5.2,1.4l19.7,11.4c5,2.9,6.7,9.3,3.8,14.3l-27.2,47.2C785.7,401.7,782.2,403.7,778.4,403.7
		z"/>
	<path class="st1" d="M786,325.7L786,325.7c1.6,0,3.1,0.4,4.5,1.2l19.7,11.4c4.3,2.5,5.8,8,3.3,12.3l-27.2,47.2
		c-1.6,2.8-4.6,4.5-7.8,4.5c-1.6,0-3.1-0.4-4.5-1.2l-19.7-11.4c-4.3-2.5-5.8-8-3.3-12.3l27.2-47.2
		C779.8,327.4,782.8,325.7,786,325.7 M786,322.7c-4.2,0-8.2,2.2-10.4,6l-27.2,47.2c-3.3,5.7-1.3,13.1,4.4,16.4l19.7,11.4
		c1.9,1.1,3.9,1.6,6,1.6c4.2,0,8.2-2.2,10.4-6l27.2-47.2c3.3-5.7,1.3-13.1-4.4-16.4L792,324.3C790.1,323.2,788,322.7,786,322.7
		L786,322.7z"/>
</g>
<polyline class="st4" points="499.2,169.1 435.5,155.8 420.5,174 465.4,230 "/>
<g>
	<path class="st5" d="M350.2,79.7c29.3,0,53.2,23.8,53.2,53.2S379.5,186,350.2,186S297,162.1,297,132.8S320.8,79.7,350.2,79.7
		 M350.2,76.7c-31,0-56.2,25.1-56.2,56.2s25.1,56.2,56.2,56.2s56.2-25.1,56.2-56.2S381.2,76.7,350.2,76.7L350.2,76.7z"/>
</g>
<g>
	<g>
		<path class="st6" d="M320.8,150.3c5.6,3.2,14.9,4.6,21.1,2.5c5.9-2.1,8.8-12.5,10.3-17.9c1.5-5.4,3.2-13.6-2-17.6
			c-3.7-2.9-11.6-3.2-14.8,0.6c-4.4,5.1-0.6,12.3,2.8,16.7c4.4,5.7,10.5,14.6,17.7,16.9c6,1.9,12.1-1.5,15.6-6.3
			c4.7-6.4,4.5-14.8,4.3-22.4c-0.1-1.9-3.1-1.9-3,0c0.3,9.2,0.1,23.8-11.6,26c-6,1.1-10.2-4.1-13.8-8c-3.4-3.7-7.4-7.7-9.7-12.2
			c-2.2-4.4-2.2-9.3,3.8-10.3c3.6-0.6,7.9,1.1,8.8,4.8c1.2,4.5-0.6,10-2.1,14.3c-2,5.8-4.2,12-10.9,12.9c-5,0.7-10.7,0-15.1-2.6
			C320.7,146.8,319.1,149.4,320.8,150.3L320.8,150.3z"/>
	</g>
</g>
</svg>
